<svg width="427" height="709" viewBox="0 0 427 709" fill="none" xmlns="http://www.w3.org/2000/svg">
<g clip-path="url(#clip0_99_7806)">
<g clip-path="url(#clip1_99_7806)">
<path fill-rule="evenodd" clip-rule="evenodd" d="M400.5 352.5C397.999 346.176 394.832 340.176 391 334.5C352.471 269.546 295.137 236.213 219 234.5C140.192 238.039 77.859 271.705 32 335.5C26.36 344.447 21.527 353.781 17.5 363.5C16.903 363.265 16.57 362.765 16.5 362C19.093 347.461 21.926 332.961 25 318.5C25.667 311.5 25.667 304.5 25 297.5C23.784 288.491 22.618 279.491 21.5 270.5C21.741 256.028 26.907 243.695 37 233.5C36.516 239.795 36.516 246.129 37 252.5C38.414 261.23 42.914 267.73 50.5 272C53.85 272.93 56.683 272.097 59 269.5C60.605 266.352 61.605 263.019 62 259.5C55.459 211.935 71.792 174.602 111 147.5C105.774 160.662 108.274 172.162 118.5 182C129.197 189.495 139.697 189.328 150 181.5C153.481 177.069 155.814 172.069 157 166.5C156.253 146.184 155.92 125.851 156 105.5C160.921 60.187 184.754 30.52 227.5 16.5C213.174 41.619 216.007 64.619 236 85.5C253.333 102.167 270.667 118.833 288 135.5C305.781 156.063 317.448 179.73 323 206.5C323.333 213.5 323.667 220.5 324 227.5C324.746 235.258 328.58 237.425 335.5 234C342.013 227.145 345.846 218.979 347 209.5C347.364 202.71 347.531 196.043 347.5 189.5C360.048 200.586 368.548 214.252 373 230.5C370.484 252.378 372.817 273.711 380 294.5C386 308.5 392 322.5 398 336.5C400.397 342.669 401.73 349.002 402 355.5C401.487 354.473 400.987 353.473 400.5 352.5Z" fill="#EE3940"/>
<path fill-rule="evenodd" clip-rule="evenodd" d="M271.5 33.5C273.809 53.574 281.309 71.574 294 87.5C307.269 101.769 318.603 117.435 328 134.5C333.678 149.073 335.012 164.073 332 179.5C328.89 167.616 323.89 156.616 317 146.5C304.287 131.456 291.954 116.122 280 100.5C269.384 84.703 265.051 67.37 267 48.5C268.003 43.327 269.503 38.327 271.5 33.5Z" fill="#EE3940"/>
<path fill-rule="evenodd" clip-rule="evenodd" d="M296.5 302.5C291.518 303.978 291.185 306.478 295.5 310C298.077 311.25 300.743 311.584 303.5 311C304.252 310.329 304.586 309.496 304.5 308.5C308.911 310.843 312.578 314.009 315.5 318C316.448 318.483 317.448 318.649 318.5 318.5C318.343 319.873 318.51 321.207 319 322.5C326.173 331.227 328.507 341.227 326 352.5C324.096 360.739 319.263 366.573 311.5 370C303.759 372.916 295.759 374.083 287.5 373.5C233.681 369.753 180.014 371.253 126.5 378C92.134 381.174 60.8 392.341 32.5 411.5C25.396 403.634 23.729 394.634 27.5 384.5C39.666 359.66 56.666 338.66 78.5 321.5C89.55 313.794 100.883 306.461 112.5 299.5C129.389 291.42 146.722 284.587 164.5 279C203.024 270.194 240.357 273.527 276.5 289C282.994 292.986 289.66 296.486 296.5 299.5C296.5 300.5 296.5 301.5 296.5 302.5Z" fill="#FCB73E"/>
<path fill-rule="evenodd" clip-rule="evenodd" d="M399.5 358.5C405 372.668 408.334 387.335 409.5 402.5C410.03 416.681 403.363 422.848 389.5 421C322.846 404.538 255.179 397.038 186.5 398.5C176.296 398.354 166.296 399.021 156.5 400.5C147.452 400.756 138.452 401.589 129.5 403C126.549 403.096 123.882 403.929 121.5 405.5C125.005 409.208 126.172 413.541 125 418.5C117.869 429.257 111.369 440.424 105.5 452C122.842 449.737 140.175 447.237 157.5 444.5C157.161 453.688 154.161 461.855 148.5 469C134.126 469.908 119.792 471.241 105.5 473C101.195 473.77 97.028 474.936 93 476.5C77.891 506.828 66.558 538.494 59 571.5C57.971 574.875 55.804 576.042 52.5 575C48.51 573.01 46.01 569.843 45 565.5C43.911 551.513 45.578 537.846 50 524.5C54.359 511.595 58.525 498.928 62.5 486.5C53.273 491.571 45.107 497.905 38 505.5C35.25 504.415 33.583 502.415 33 499.5C32.333 496.167 32.333 492.833 33 489.5C38.5 484.667 44 479.833 49.5 475C57.951 470.026 66.451 465.193 75 460.5C82.622 443.256 90.788 426.256 99.5 409.5C73.909 413.625 50.909 423.791 30.5 440C19.419 451.694 20.086 462.694 32.5 473C21.385 471.022 12.885 465.189 6.99997 455.5C4.92197 446.116 6.92197 437.783 13 430.5C18.733 423.265 25.233 416.932 32.5 411.5C60.8 392.341 92.134 381.174 126.5 378C180.014 371.253 233.681 369.753 287.5 373.5C296.976 374.783 306.643 375.617 316.5 376C327.138 377.83 337.805 379.496 348.5 381C360.156 382.965 371.489 386.132 382.5 390.5C377.197 362.555 365.364 337.555 347 315.5C341.938 310.269 336.771 305.269 331.5 300.5C330.738 298.738 329.404 297.738 327.5 297.5C312.637 284.729 295.637 275.563 276.5 270C197.413 251.148 127.079 268.148 65.5 321C46.79 337.955 32.123 357.788 21.5 380.5C19.992 382.181 18.992 384.181 18.5 386.5C17.833 386.5 17.5 386.167 17.5 385.5C19.1 379.033 21.1 372.7 23.5 366.5C50.066 308.776 93.733 270.276 154.5 251C225.148 230.382 289.481 242.382 347.5 287C370.358 306.909 387.691 330.743 399.5 358.5Z" fill="#6C1417"/>
<path fill-rule="evenodd" clip-rule="evenodd" d="M236.5 267.5C269.544 269.669 299.877 279.669 327.5 297.5C328.262 299.262 329.596 300.262 331.5 300.5C336.771 305.269 341.938 310.269 347 315.5C365.364 337.555 377.197 362.555 382.5 390.5C371.489 386.132 360.156 382.965 348.5 381C337.805 379.496 327.138 377.83 316.5 376C306.643 375.617 296.976 374.783 287.5 373.5C295.759 374.083 303.759 372.916 311.5 370C319.263 366.573 324.096 360.739 326 352.5C328.507 341.227 326.173 331.227 319 322.5C318.51 321.207 318.343 319.873 318.5 318.5C317.448 318.649 316.448 318.483 315.5 318C312.578 314.009 308.911 310.843 304.5 308.5C302.955 305.056 300.289 303.056 296.5 302.5C296.5 301.5 296.5 300.5 296.5 299.5C289.66 296.486 282.994 292.986 276.5 289C240.357 273.527 203.024 270.194 164.5 279C146.722 284.587 129.389 291.42 112.5 299.5C100.883 306.461 89.55 313.794 78.5 321.5C111.325 293.092 149.325 275.426 192.5 268.5C207.149 267.649 221.816 267.315 236.5 267.5Z" fill="#FC9730"/>
<path fill-rule="evenodd" clip-rule="evenodd" d="M296.5 302.5C300.289 303.056 302.955 305.056 304.5 308.5C304.586 309.496 304.252 310.329 303.5 311C300.743 311.584 298.077 311.25 295.5 310C291.185 306.478 291.518 303.978 296.5 302.5Z" fill="#FAD364"/>
<path fill-rule="evenodd" clip-rule="evenodd" d="M162.5 296.5C167.431 296.764 170.098 299.431 170.5 304.5C169.954 306.135 169.62 307.801 169.5 309.5C165.776 309.95 163.609 308.283 163 304.5C162.503 301.854 162.336 299.187 162.5 296.5Z" fill="#FAD263"/>
<path fill-rule="evenodd" clip-rule="evenodd" d="M327.5 297.5C329.404 297.738 330.738 298.738 331.5 300.5C329.596 300.262 328.262 299.262 327.5 297.5Z" fill="#C3978C"/>
<path fill-rule="evenodd" clip-rule="evenodd" d="M260.5 288.5C261.833 288.5 263.167 288.5 264.5 288.5C264.121 293.372 261.454 296.038 256.5 296.5C256.34 294.801 256.506 293.134 257 291.5C258.518 290.837 259.685 289.837 260.5 288.5Z" fill="#F9D263"/>
<path fill-rule="evenodd" clip-rule="evenodd" d="M206.5 280.5C209.928 280.547 212.928 281.713 215.5 284C217.229 285.789 217.896 287.956 217.5 290.5C210.419 291.049 206.752 287.716 206.5 280.5Z" fill="#FAD364"/>
<path fill-rule="evenodd" clip-rule="evenodd" d="M236.5 267.5C221.816 267.315 207.149 267.649 192.5 268.5C200.775 266.958 209.275 266.291 218 266.5C224.343 266.5 230.509 266.834 236.5 267.5Z" fill="#F3AE66"/>
<path fill-rule="evenodd" clip-rule="evenodd" d="M234.5 308.5C238.673 308.419 242.339 309.752 245.5 312.5C247.176 318.445 245.176 319.945 239.5 317C236.726 314.746 235.059 311.913 234.5 308.5Z" fill="#F9D362"/>
<path fill-rule="evenodd" clip-rule="evenodd" d="M122.5 314.5C125.734 314.237 127.068 315.737 126.5 319C126.616 321.544 125.783 323.711 124 325.5C120.884 327.024 119.05 326.024 118.5 322.5C118.892 319.299 120.226 316.633 122.5 314.5Z" fill="#FAD366"/>
<path fill-rule="evenodd" clip-rule="evenodd" d="M230.5 331.5C232.604 331.201 234.604 331.534 236.5 332.5C237.518 333.852 238.851 334.852 240.5 335.5C241.309 337.071 241.643 338.738 241.5 340.5C238.107 340.938 235.107 340.105 232.5 338C230.771 336.211 230.104 334.044 230.5 331.5Z" fill="#FAD465"/>
<path fill-rule="evenodd" clip-rule="evenodd" d="M300.5 334.5C301.833 334.5 303.167 334.5 304.5 334.5C304.136 339.368 301.469 342.034 296.5 342.5C296.34 340.801 296.506 339.134 297 337.5C298.518 336.837 299.685 335.837 300.5 334.5Z" fill="#F9D262"/>
<path fill-rule="evenodd" clip-rule="evenodd" d="M272.5 338.5C273.833 338.5 275.167 338.5 276.5 338.5C276.618 343.8 273.951 346.466 268.5 346.5C268.343 345.127 268.51 343.793 269 342.5C270.376 341.295 271.542 339.962 272.5 338.5Z" fill="#F8D365"/>
<path fill-rule="evenodd" clip-rule="evenodd" d="M145.5 344.5C152.267 346.16 154.267 350.327 151.5 357C149.299 357.825 147.466 357.325 146 355.5C144.353 351.843 144.187 348.177 145.5 344.5Z" fill="#F9D161"/>
<path fill-rule="evenodd" clip-rule="evenodd" d="M186.5 343.5C191.221 343.129 195.055 344.796 198 348.5C198.49 349.793 198.657 351.127 198.5 352.5C191.281 353.599 187.281 350.599 186.5 343.5Z" fill="#F9D262"/>
<path fill-rule="evenodd" clip-rule="evenodd" d="M339.5 342.5C340.833 342.5 342.167 342.5 343.5 342.5C343.5 345.833 343.5 349.167 343.5 352.5C341.876 352.64 340.71 351.973 340 350.5C339.503 347.854 339.336 345.187 339.5 342.5Z" fill="#F9D366"/>
<path fill-rule="evenodd" clip-rule="evenodd" d="M97.4999 350.5C100.794 350.259 103.794 351.092 106.5 353C111.074 357.853 110.074 359.853 103.5 359C101.999 357.748 100.332 356.748 98.4999 356C97.5939 354.301 97.2609 352.467 97.4999 350.5Z" fill="#FAD364"/>
<path fill-rule="evenodd" clip-rule="evenodd" d="M63.5 368.5C65.5 368.5 67.5 368.5 69.5 368.5C69.643 370.262 69.309 371.929 68.5 373.5C66.833 374.5 65.5 375.833 64.5 377.5C62.591 378.348 60.591 378.682 58.5 378.5C58.404 374.269 60.07 370.935 63.5 368.5Z" fill="#F9D365"/>
<path fill-rule="evenodd" clip-rule="evenodd" d="M17.5001 385.5C17.5001 386.167 17.8331 386.5 18.5001 386.5C17.7721 388.512 16.9381 390.512 16.0001 392.5C15.4121 389.861 15.9121 387.527 17.5001 385.5Z" fill="#B59798"/>
<path fill-rule="evenodd" clip-rule="evenodd" d="M186.5 398.5C176.709 400.046 166.709 400.712 156.5 400.5C166.296 399.021 176.296 398.354 186.5 398.5Z" fill="#DECCCB"/>
<path fill-rule="evenodd" clip-rule="evenodd" d="M188.5 404.5C189.873 404.343 191.207 404.51 192.5 405C198.149 409.464 202.482 414.964 205.5 421.5C201.715 432.399 196.882 442.732 191 452.5C184.666 448.994 180.832 443.661 179.5 436.5C181.717 425.529 184.717 414.862 188.5 404.5Z" fill="#6C1518"/>
<path fill-rule="evenodd" clip-rule="evenodd" d="M284.5 429.5C299.545 435.666 301.545 444.833 290.5 457C300.341 452.371 309.341 446.204 317.5 438.5C328.913 443.568 330.746 451.234 323 461.5C311.926 475.978 301.593 490.978 292 506.5C291.506 508.134 291.34 509.801 291.5 511.5C295.331 511.751 298.664 510.584 301.5 508C312.011 497.821 320.178 485.987 326 472.5C329.15 461.215 332.983 450.215 337.5 439.5C347.412 439.148 353.079 443.982 354.5 454C354.333 455.5 354.167 457 354 458.5C345.492 475.194 338.659 492.528 333.5 510.5C333.833 511.5 334.167 512.5 334.5 513.5C345.295 506.872 353.462 497.872 359 486.5C366.351 471.111 372.518 455.278 377.5 439C384.68 438.507 390.18 441.34 394 447.5C394.958 449.199 395.458 451.033 395.5 453C383.29 484.956 370.29 516.622 356.5 548C363.545 553.612 370.712 559.112 378 564.5C378.868 568.672 377.368 571.838 373.5 574C370.28 575.777 366.947 577.277 363.5 578.5C357.347 575.251 351.68 571.251 346.5 566.5C340.046 574.788 332.712 582.288 324.5 589C309.162 597.895 293.162 599.561 276.5 594C267.405 588.304 263.905 580.137 266 569.5C270.833 552.667 281.667 541.833 298.5 537C307.104 535.458 315.77 535.124 324.5 536C329.197 537.242 333.864 538.242 338.5 539C341.469 533.244 343.969 527.411 346 521.5C339.128 529.124 330.628 531.957 320.5 530C315.668 524.873 313.501 518.707 314 511.5C306.836 520.995 297.669 527.828 286.5 532C273.932 533.436 267.599 527.77 267.5 515C267.22 509.507 268.387 504.34 271 499.5C277.298 486.883 285.465 475.716 295.5 466C291.513 466.324 287.513 466.991 283.5 468C274.333 482.5 265.167 497 256 511.5C246.998 525.916 234.164 534.75 217.5 538C200.37 540.183 190.87 532.683 189 515.5C182.872 523.962 175.706 531.462 167.5 538C161.498 542.334 154.831 544.001 147.5 543C144.619 541.749 142.786 539.583 142 536.5C140.484 524.561 142.484 513.228 148 502.5C155.721 485.561 163.555 468.727 171.5 452C178.698 451.689 183.864 454.855 187 461.5C187.667 463.833 187.667 466.167 187 468.5C179.015 483.802 171.015 499.135 163 514.5C161.241 518.009 160.074 521.675 159.5 525.5C162.852 525.216 165.852 524.05 168.5 522C178.486 512.683 186.986 502.183 194 490.5C200.859 473.983 211.692 460.816 226.5 451C233.824 446.111 241.824 444.111 250.5 445C259.58 447.991 262.747 454.157 260 463.5C253.997 480.178 243.497 493.345 228.5 503C223.475 506.015 218.142 508.182 212.5 509.5C212.545 513.346 213.378 517.013 215 520.5C216.739 521.894 218.739 522.561 221 522.5C225.515 521.994 229.681 520.494 233.5 518C238.634 513.867 243.468 509.367 248 504.5C257.335 491.839 265.668 478.506 273 464.5C272.566 460.548 272.566 456.548 273 452.5C277.356 445.121 281.189 437.455 284.5 429.5Z" fill="#6C1417"/>
<path fill-rule="evenodd" clip-rule="evenodd" d="M243.5 460.5C245.167 460.5 246.833 460.5 248.5 460.5C243.209 477.133 232.542 489.133 216.5 496.5C220.768 481.195 229.768 469.195 243.5 460.5Z" fill="#F9FAFA"/>
<path fill-rule="evenodd" clip-rule="evenodd" d="M302.5 553.5C308.176 553.334 313.843 553.501 319.5 554C322.754 554.25 325.754 555.25 328.5 557C322.088 569.08 312.754 578.08 300.5 584C293.434 586.548 286.767 585.881 280.5 582C277.135 577.181 276.635 572.014 279 566.5C285.413 559.432 293.246 555.099 302.5 553.5Z" fill="#F9FAFA"/>
<path fill-rule="evenodd" clip-rule="evenodd" d="M87.5 544.5C95.012 543.394 101.512 545.394 107 550.5C107.762 554.332 107.262 557.998 105.5 561.5C112.945 569.119 111.945 575.285 102.5 580C94.538 581.4 87.038 580.234 80 576.5C82.165 565.837 84.665 555.17 87.5 544.5Z" fill="#EE3940"/>
<path fill-rule="evenodd" clip-rule="evenodd" d="M93.5 551.5C97.806 551.303 99.806 553.303 99.5 557.5C97.167 557.5 94.833 557.5 92.5 557.5C92.325 555.379 92.659 553.379 93.5 551.5Z" fill="#F9FAFA"/>
<path fill-rule="evenodd" clip-rule="evenodd" d="M89.5 563.5C92.879 563.888 96.212 564.555 99.5 565.5C100.304 573.145 96.97 575.312 89.5 572C88.709 569.25 88.709 566.417 89.5 563.5Z" fill="#F9FAFA"/>
<path fill-rule="evenodd" clip-rule="evenodd" d="M239.5 563.5C247.079 562.5 252.413 565.334 255.5 572C254.802 576.368 252.802 580.035 249.5 583C252.672 587.173 254.839 591.673 256 596.5C252.673 599.154 248.839 600.154 244.5 599.5C243.572 595.638 242.072 591.971 240 588.5C239.667 591.833 239.333 595.167 239 598.5C236.366 600.594 233.533 600.927 230.5 599.5C229.334 588.849 229.168 578.182 230 567.5C232.888 565.288 236.055 563.954 239.5 563.5Z" fill="#EE3940"/>
<path fill-rule="evenodd" clip-rule="evenodd" d="M148.5 557.5C153.913 557.229 159.246 557.729 164.5 559C167.839 560.831 169.839 563.665 170.5 567.5C168.561 571.434 166.228 575.101 163.5 578.5C165.026 582.387 166.693 586.22 168.5 590C167.556 591.477 166.223 592.477 164.5 593C161.854 593.497 159.187 593.664 156.5 593.5C155.574 589.053 154.24 584.72 152.5 580.5C151.453 584.112 150.62 587.779 150 591.5C144.944 593.826 142.11 592.326 141.5 587C142.504 578.145 143.67 569.311 145 560.5C145.985 559.186 147.152 558.186 148.5 557.5Z" fill="#EE3940"/>
<path fill-rule="evenodd" clip-rule="evenodd" d="M153.5 564.5C155.527 564.338 157.527 564.505 159.5 565C160.833 566.333 160.833 567.667 159.5 569C157.655 570.128 155.655 570.628 153.5 570.5C153.5 568.5 153.5 566.5 153.5 564.5Z" fill="#F9FAFA"/>
<path fill-rule="evenodd" clip-rule="evenodd" d="M238.5 570.5C240.527 570.338 242.527 570.505 244.5 571C247.017 573.194 246.684 575.194 243.5 577C241.866 577.494 240.199 577.66 238.5 577.5C238.5 575.167 238.5 572.833 238.5 570.5Z" fill="#F9FAFA"/>
<path fill-rule="evenodd" clip-rule="evenodd" d="M211.5 582.5C210.532 584.607 210.198 586.941 210.5 589.5C214.833 589.5 219.167 589.5 223.5 589.5C224.497 592.005 224.497 594.672 223.5 597.5C216.5 597.5 209.5 597.5 202.5 597.5C202.759 586.164 203.093 574.831 203.5 563.5C210.833 563.5 218.167 563.5 225.5 563.5C225.682 565.591 225.348 567.591 224.5 569.5C220.217 570.492 215.884 570.826 211.5 570.5C211.286 572.144 211.62 573.644 212.5 575C214.833 575.333 217.167 575.667 219.5 576C220.767 577.796 220.767 579.629 219.5 581.5C216.914 582.48 214.247 582.813 211.5 582.5Z" fill="#EE3940"/>
<path fill-rule="evenodd" clip-rule="evenodd" d="M119.5 550.5C122.545 550.508 125.545 550.841 128.5 551.5C127.068 560.124 126.068 568.79 125.5 577.5C127.911 577.863 129.411 576.863 130 574.5C131.763 567.926 133.096 561.259 134 554.5C136.833 553.13 139.5 553.464 142 555.5C141.576 565.283 139.242 574.616 135 583.5C130.865 587.191 126.031 588.358 120.5 587C116.013 583.516 114.346 578.849 115.5 573C115.36 565.202 116.694 557.702 119.5 550.5Z" fill="#EE3940"/>
<path fill-rule="evenodd" clip-rule="evenodd" d="M182.5 560.5C186.499 560.091 190.166 560.925 193.5 563C197.041 565.282 197.374 567.949 194.5 571C182.879 568.958 178.379 573.791 181 585.5C183.363 587.907 185.863 588.074 188.5 586C183.771 585.004 182.438 582.337 184.5 578C189.489 577.501 194.489 577.334 199.5 577.5C199.07 583.851 198.403 590.185 197.5 596.5C193.614 598.467 190.947 597.467 189.5 593.5C182.144 597.411 176.644 595.745 173 588.5C170.862 580.932 171.529 573.598 175 566.5C177.114 563.879 179.614 561.879 182.5 560.5Z" fill="#EE3940"/>
<path fill-rule="evenodd" clip-rule="evenodd" d="M211.5 582.5C211.5 584.5 211.5 586.5 211.5 588.5C215.702 588.183 219.702 588.517 223.5 589.5C219.167 589.5 214.833 589.5 210.5 589.5C210.198 586.941 210.532 584.607 211.5 582.5Z" fill="#F38E8E"/>
<path fill-rule="evenodd" clip-rule="evenodd" d="M32.5 611.5C40.274 617.588 48.608 622.922 57.5 627.5C131.306 667.261 209.64 679.428 292.5 664C322.051 657.394 347.718 643.727 369.5 623C367.455 622.51 365.455 622.677 363.5 623.5C292.678 636.713 221.678 637.88 150.5 627C133.208 623.927 116.208 619.76 99.5 614.5C76.187 606.843 54.52 596.01 34.5 582C134.015 618.099 236.015 626.432 340.5 607C350.102 604.413 359.769 602.079 369.5 600C376.715 598.887 383.715 599.554 390.5 602C399.905 610.291 401.072 619.791 394 630.5C375.596 651.798 353.096 667.298 326.5 677C279.657 693.52 231.657 697.853 182.5 690C127.483 681.561 77.483 661.228 32.5 629C26.547 623.276 24.547 616.443 26.5 608.5C28.534 609.559 30.534 610.559 32.5 611.5Z" fill="#6C1517"/>
<path fill-rule="evenodd" clip-rule="evenodd" d="M105.5 625.5C156.097 639.414 207.764 644.581 260.5 641C276.625 640.141 292.625 638.307 308.5 635.5C301.638 639.078 294.638 642.578 287.5 646C274.265 649.642 260.932 652.975 247.5 656C221.558 658.451 195.558 659.118 169.5 658C142.182 654.592 115.516 648.592 89.5 640C81.248 636.915 73.248 633.248 65.5 629C62.883 628.178 60.216 627.678 57.5 627.5C48.608 622.922 40.274 617.588 32.5 611.5C31.895 604.6 34.895 601.767 41.5 603C62.076 612.581 83.41 620.081 105.5 625.5Z" fill="#FCB73E"/>
<path fill-rule="evenodd" clip-rule="evenodd" d="M57.5 627.5C60.216 627.678 62.883 628.178 65.5 629C73.248 633.248 81.248 636.915 89.5 640C115.516 648.592 142.182 654.592 169.5 658C195.558 659.118 221.558 658.451 247.5 656C260.932 652.975 274.265 649.642 287.5 646C294.638 642.578 301.638 639.078 308.5 635.5C327.196 632.497 345.529 628.497 363.5 623.5C365.455 622.677 367.455 622.51 369.5 623C347.718 643.727 322.051 657.394 292.5 664C209.64 679.428 131.306 667.261 57.5 627.5Z" fill="#FC9730"/>
</g>
</g>
<defs>
<clipPath id="clip0_99_7806">
<rect width="427" height="709" fill="white"/>
</clipPath>
<clipPath id="clip1_99_7806">
<rect width="999" height="1080" fill="white" transform="translate(-291 -145)"/>
</clipPath>
</defs>
</svg>
